<svg width="480" height="480" viewBox="0 0 480 480" fill="none" xmlns="http://www.w3.org/2000/svg">
<rect x="90" y="92" width="304" height="302" fill="white"/>
<path d="M102.658 0.95895C85.7249 3.09228 65.4582 11.0923 50.5249 21.2256C30.3915 34.9589 13.0582 58.959 5.45818 83.6256C-0.00848484 101.226 -0.275152 112.559 0.124848 248.159C0.658182 376.959 0.658182 377.492 3.59152 388.826C14.9248 431.626 47.7248 464.559 90.5249 475.759C101.858 478.692 102.525 478.692 231.192 479.226C321.992 479.492 364.392 479.226 373.725 478.159C423.858 472.426 462.125 439.226 476.125 389.492L479.192 378.826V240.159C479.192 112.026 479.058 100.826 476.792 92.2923C465.192 46.959 434.792 16.0256 389.325 3.09228C379.325 0.292281 377.858 0.158964 245.192 0.0256309C171.458 -0.107702 107.325 0.292283 102.658 0.95895ZM276.125 97.2256C327.458 110.692 368.258 151.359 382.125 202.826C385.325 214.826 385.725 218.426 385.725 239.492C385.725 260.426 385.325 264.159 382.125 275.759C369.192 324.026 334.525 361.492 286.792 378.692C267.725 385.492 259.458 386.159 192.925 386.159H131.592L127.725 382.292C123.858 378.426 123.858 378.159 123.858 363.092C123.858 342.959 119.992 327.092 109.992 307.759C96.9249 282.026 92.3915 260.826 93.5915 232.426C94.6582 208.426 98.7915 193.092 109.458 172.426C130.658 131.892 168.925 103.359 214.125 94.8256C230.258 91.7589 259.592 92.9589 276.125 97.2256Z" fill="url(#paint0_linear_42_6)"/>
<defs>
<linearGradient id="paint0_linear_42_6" x1="21.5" y1="479" x2="490.5" y2="2" gradientUnits="userSpaceOnUse">
<stop stop-color="#D524BA"/>
<stop offset="0.43" stop-color="#9700B6"/>
<stop offset="1" stop-color="#572AD7"/>
</linearGradient>
</defs>
</svg>
