<svg width="28" height="28" viewBox="0 0 28 28" fill="none" xmlns="http://www.w3.org/2000/svg">
<path d="M13.9786 0.000291135C14.0315 0.000390513 14.0845 0.000489892 14.139 0.000592281C14.9215 0.00306425 15.687 0.0253986 16.4562 0.180886C16.5064 0.190821 16.5565 0.200757 16.6081 0.210994C16.9604 0.282499 17.3093 0.364421 17.6575 0.453481C17.6982 0.463724 17.7388 0.473967 17.7806 0.484521C19.6503 0.96513 21.4295 1.93475 22.9063 3.16921C22.9354 3.19342 22.9645 3.21763 22.9944 3.24257C23.2425 3.45443 23.4775 3.66047 23.5112 3.99999C23.5121 4.04068 23.5129 4.08137 23.5138 4.1233C23.5152 4.16357 23.5166 4.20384 23.518 4.24533C23.4751 4.56561 23.2828 4.77996 23.0614 5.00162C23.0341 5.02914 23.0068 5.05667 22.9787 5.08502C22.8892 5.17518 22.799 5.26472 22.7088 5.35424C22.646 5.41704 22.5832 5.47988 22.5205 5.54273C22.3892 5.67406 22.2576 5.80508 22.1258 5.9359C21.9571 6.10339 21.7892 6.2716 21.6215 6.44004C21.4921 6.5698 21.3624 6.69917 21.2325 6.82842C21.1704 6.89029 21.1085 6.95229 21.0466 7.0144C20.9601 7.10118 20.8731 7.18742 20.786 7.27353C20.7366 7.32267 20.6873 7.3718 20.6364 7.42242C20.4325 7.59567 20.2478 7.66562 19.9816 7.66704C19.9422 7.66795 19.9029 7.66887 19.8624 7.66981C19.5344 7.6198 19.2846 7.40312 19.0294 7.20703C18.0777 6.49642 17.0073 6.02572 15.8556 5.74183C15.8199 5.73283 15.7842 5.72382 15.7474 5.71455C13.7873 5.24402 11.6461 5.65813 9.90379 6.61414C9.81837 6.65936 9.81837 6.65936 9.73123 6.7055C7.83992 7.74797 6.50445 9.60762 5.87951 11.6454C5.80865 11.8923 5.74694 12.1407 5.6993 12.3932C5.68973 12.4438 5.68017 12.4945 5.67032 12.5467C5.59014 13.0129 5.56815 13.4712 5.56961 13.9435C5.56968 14.0005 5.56968 14.0005 5.56976 14.0587C5.57564 15.4832 5.93294 16.8182 6.62756 18.0631C6.64656 18.0978 6.66555 18.1325 6.68512 18.1683C6.9574 18.6613 7.27099 19.0914 7.64797 19.5096C7.71511 19.5846 7.78058 19.6611 7.84591 19.7377C8.13795 20.0756 8.45639 20.3554 8.81171 20.6255C8.84021 20.6475 8.86871 20.6694 8.89807 20.692C10.6964 22.0661 12.9745 22.6108 15.2144 22.3348C17.1796 22.0328 19.1906 20.9908 20.4423 19.4261C20.4661 19.3964 20.4899 19.3667 20.5144 19.3361C20.8269 18.9422 21.1192 18.5419 21.3672 18.104C21.3858 18.0713 21.4044 18.0386 21.4236 18.0049C21.5415 17.7892 21.6385 17.5675 21.7324 17.3404C21.7568 17.2817 21.7811 17.223 21.8062 17.1625C21.8246 17.1179 21.843 17.0733 21.862 17.0273C21.8283 17.0275 21.7946 17.0277 21.7599 17.0279C20.9391 17.0327 20.1183 17.0363 19.2975 17.0386C18.9005 17.0397 18.5036 17.0412 18.1066 17.0437C17.7606 17.0459 17.4145 17.0473 17.0684 17.0478C16.8853 17.0481 16.7021 17.0487 16.519 17.0503C16.3143 17.0519 16.1096 17.0521 15.9049 17.052C15.8142 17.0532 15.8142 17.0532 15.7218 17.0544C15.3712 17.0525 15.1576 17.0183 14.8727 16.8092C14.6306 16.542 14.5914 16.3762 14.59 16.025C14.5897 15.9835 14.5893 15.942 14.589 15.8993C14.5879 15.7616 14.5872 15.6239 14.5867 15.4863C14.5865 15.4393 14.5863 15.3922 14.586 15.3438C14.5849 15.0949 14.5841 14.8461 14.5836 14.5972C14.583 14.3403 14.5811 14.0834 14.5789 13.8265C14.5775 13.6288 14.5771 13.4312 14.5769 13.2335C14.5766 13.1388 14.576 13.0441 14.5749 12.9495C14.5736 12.8167 14.5737 12.6841 14.574 12.5513C14.573 12.493 14.573 12.493 14.5719 12.4334C14.5748 12.1587 14.6472 12.0058 14.8181 11.7935C15.1124 11.5283 15.3406 11.5128 15.7244 11.5132C15.7971 11.513 15.7971 11.513 15.8714 11.5127C16.0346 11.5122 16.1978 11.5122 16.3611 11.5121C16.4778 11.5118 16.5946 11.5115 16.7114 11.5113C17.0291 11.5105 17.3468 11.5102 17.6645 11.5099C17.8628 11.5098 18.0612 11.5096 18.2596 11.5093C18.88 11.5086 19.5005 11.508 20.1209 11.5078C20.8376 11.5076 21.5543 11.5066 22.271 11.5051C22.8247 11.5039 23.3783 11.5033 23.9319 11.5032C24.2628 11.5032 24.5936 11.5029 24.9244 11.5019C25.2356 11.501 25.5468 11.5009 25.858 11.5014C25.9722 11.5014 26.0864 11.5012 26.2007 11.5006C26.3566 11.4999 26.5125 11.5003 26.6684 11.5008C26.7136 11.5004 26.7589 11.4999 26.8055 11.4995C27.1405 11.5024 27.4168 11.5838 27.6602 11.8275C27.8139 12.0272 27.8626 12.2288 27.904 12.4724C27.911 12.5127 27.9179 12.5531 27.9251 12.5947C28.0055 13.1094 28.0027 13.6249 27.9981 14.1446C27.9977 14.222 27.9977 14.222 27.9973 14.301C27.9929 15.0739 27.9702 15.8318 27.8138 16.5911C27.7975 16.6712 27.7975 16.6712 27.7809 16.7529C27.3379 18.8667 26.4885 20.8373 25.1382 22.5337C25.0998 22.5826 25.0614 22.6314 25.0218 22.6817C24.6974 23.0863 24.3481 23.466 23.9916 23.8422C23.9567 23.8793 23.9219 23.9164 23.886 23.9546C23.6621 24.1862 23.4163 24.3873 23.165 24.5886C23.066 24.6684 22.9679 24.7493 22.8711 24.8318C21.0612 26.3669 18.7807 27.3511 16.4562 27.7675C16.4108 27.7764 16.3655 27.7852 16.3187 27.7944C14.8048 28.0831 13.0526 28.062 11.5419 27.7675C11.4929 27.7588 11.4439 27.75 11.3935 27.7409C8.0827 27.1428 4.84097 25.2241 2.8599 22.4792C2.83341 22.4431 2.80692 22.407 2.77962 22.3698C0.980242 19.9142 -0.006162 17.0669 2.89659e-05 14.0151C5.86605e-05 13.9599 8.83557e-05 13.9048 0.00011895 13.8479C0.00234358 12.9466 0.052349 12.0784 0.23892 11.1937C0.250622 11.1375 0.262324 11.0813 0.274381 11.0234C0.735844 8.87724 1.70933 6.90755 3.07832 5.19664C3.12182 5.14189 3.16532 5.08715 3.21013 5.03074C3.82944 4.27552 4.53055 3.54377 5.31707 2.96136C5.35243 2.93485 5.38779 2.90833 5.42423 2.88102C5.96998 2.47304 6.52479 2.09569 7.11899 1.76194C7.15318 1.74231 7.18736 1.72267 7.22258 1.70244C8.64416 0.88978 10.2507 0.363785 11.8695 0.126367C11.9353 0.116699 12.0011 0.107031 12.0688 0.0970705C12.7054 0.00989604 13.3368 -0.00221182 13.9786 0.000291135Z" fill="#157DE6"/>
<path d="M13.9786 0.000291135C14.0315 0.000390513 14.0845 0.000489892 14.139 0.000592281C14.9215 0.00306425 15.687 0.0253986 16.4562 0.180886C16.5064 0.190821 16.5565 0.200757 16.6081 0.210994C16.9604 0.282499 17.3093 0.364421 17.6575 0.453481C17.6982 0.463724 17.7388 0.473967 17.7806 0.484521C19.6503 0.96513 21.4295 1.93475 22.9063 3.16921C22.9354 3.19342 22.9645 3.21763 22.9944 3.24257C23.2425 3.45443 23.4775 3.66047 23.5112 3.99999C23.5121 4.04068 23.5129 4.08137 23.5138 4.1233C23.5152 4.16357 23.5166 4.20384 23.518 4.24533C23.4751 4.56561 23.2828 4.77996 23.0614 5.00162C23.0341 5.02914 23.0068 5.05667 22.9787 5.08502C22.8892 5.17518 22.799 5.26472 22.7088 5.35424C22.646 5.41704 22.5832 5.47988 22.5205 5.54273C22.3892 5.67406 22.2576 5.80508 22.1258 5.9359C21.9571 6.10339 21.7892 6.2716 21.6215 6.44004C21.4921 6.5698 21.3624 6.69917 21.2325 6.82842C21.1704 6.89029 21.1085 6.95229 21.0466 7.0144C20.9601 7.10118 20.8731 7.18742 20.786 7.27353C20.7366 7.32267 20.6873 7.3718 20.6364 7.42242C20.4325 7.59567 20.2478 7.66562 19.9816 7.66704C19.9422 7.66795 19.9029 7.66887 19.8624 7.66981C19.5344 7.6198 19.2846 7.40312 19.0294 7.20703C18.0777 6.49642 17.0073 6.02572 15.8556 5.74183C15.8199 5.73283 15.7842 5.72382 15.7474 5.71455C13.7873 5.24402 11.6461 5.65813 9.90379 6.61414C9.81837 6.65936 9.81837 6.65936 9.73123 6.7055C7.83992 7.74797 6.50445 9.60762 5.87951 11.6454C5.80865 11.8923 5.74694 12.1407 5.6993 12.3932C5.68973 12.4438 5.68017 12.4945 5.67032 12.5467C5.59014 13.0129 5.56815 13.4712 5.56961 13.9435C5.56969 14.0005 5.56969 14.0005 5.56976 14.0587C5.57538 15.42 5.89763 16.6942 6.54011 17.8966C6.62756 18.0631 6.62756 18.0631 6.68217 18.2267C6.62299 18.2603 6.62299 18.2603 6.56261 18.2947C5.87269 18.6871 5.1832 19.08 4.49802 19.4806C3.82405 19.8747 3.14621 20.2618 2.4672 20.6471C2.37412 20.7002 2.28129 20.7537 2.1889 20.808C1.9425 20.9527 1.9425 20.9527 1.82243 20.9527C0.598382 18.8305 -0.00492016 16.4554 3.02163e-05 14.0151C5.99109e-05 13.9599 8.96061e-05 13.9048 0.000120201 13.8479C0.00234483 12.9466 0.0523503 12.0784 0.238922 11.1937C0.250624 11.1375 0.262326 11.0813 0.274382 11.0234C0.735845 8.87724 1.70933 6.90755 3.07832 5.19664C3.12182 5.14189 3.16532 5.08715 3.21013 5.03074C3.82944 4.27552 4.53055 3.54377 5.31707 2.96136C5.35243 2.93485 5.38779 2.90833 5.42423 2.88102C5.96998 2.47304 6.52479 2.09569 7.119 1.76194C7.15318 1.74231 7.18736 1.72267 7.22258 1.70244C8.64416 0.88978 10.2507 0.363785 11.8695 0.126367C11.9353 0.116699 12.0011 0.107031 12.0688 0.0970705C12.7054 0.00989604 13.3368 -0.00221182 13.9786 0.000291135Z" fill="#FF4B25"/>
<path d="M6.57337 18.2269C6.78359 18.3075 6.85428 18.4135 6.96583 18.6051C7.17194 18.941 7.40807 19.2375 7.66544 19.5354C7.70887 19.5861 7.7523 19.6368 7.79704 19.6891C8.10766 20.042 8.43752 20.342 8.81212 20.6257C8.84054 20.6476 8.86896 20.6694 8.89824 20.6919C10.6966 22.0663 12.9747 22.611 15.2148 22.335C16.1672 22.1886 17.0794 21.8738 17.928 21.4218C18.0948 21.3345 18.0948 21.3345 18.2586 21.28C18.827 22.2504 19.3909 23.2233 19.9526 24.1976C20.0267 24.3261 20.1008 24.4546 20.1749 24.5831C20.2443 24.7032 20.3135 24.8234 20.3828 24.9436C20.4145 24.9985 20.4461 25.0534 20.4788 25.1099C20.509 25.1624 20.5393 25.2149 20.5705 25.269C20.6868 25.4671 20.8079 25.6621 20.9304 25.8564C20.9888 25.9686 20.9888 25.9686 20.9888 26.1322C19.4779 26.9772 17.8459 27.5705 16.129 27.8223C16.0632 27.8319 15.9975 27.8416 15.9297 27.8516C15.2932 27.9387 14.6617 27.9508 14.02 27.9483C13.967 27.9482 13.914 27.9481 13.8595 27.948C13.0758 27.9456 12.3133 27.918 11.5423 27.7677C11.4933 27.759 11.4443 27.7502 11.3939 27.7411C8.08567 27.1435 4.83793 25.225 2.86031 22.4794C2.83295 22.4418 2.80558 22.4043 2.77739 22.3656C2.45715 21.9252 2.14419 21.4828 1.87744 21.0074C2.01361 20.855 2.16423 20.7657 2.34179 20.6658C2.40293 20.6312 2.46407 20.5965 2.52706 20.5609C2.55963 20.5426 2.5922 20.5243 2.62575 20.5055C2.76412 20.4278 2.90215 20.3496 3.04022 20.2714C3.11162 20.231 3.18305 20.1906 3.25449 20.1502C3.59971 19.9551 3.94342 19.7575 4.28683 19.5592C4.40251 19.4925 4.51819 19.4257 4.63387 19.359C4.69154 19.3257 4.74921 19.2925 4.80863 19.2582C5.00183 19.1468 5.19516 19.0357 5.38851 18.9246C5.48666 18.8681 5.58482 18.8117 5.68297 18.7553C5.77617 18.7017 5.86939 18.6482 5.96262 18.5947C6.01881 18.5624 6.07501 18.53 6.13291 18.4967C6.18249 18.4682 6.23208 18.4398 6.28316 18.4104C6.38177 18.3523 6.47809 18.2903 6.57337 18.2269Z" fill="#12B346"/>
<path d="M1.82243 6.996C2.01597 7.06931 2.19417 7.15478 2.37465 7.25582C2.42859 7.28596 2.48253 7.3161 2.53811 7.34716C2.59587 7.3797 2.65364 7.41225 2.71315 7.44578C2.77377 7.47981 2.83439 7.51383 2.89684 7.54889C3.35534 7.80706 3.81066 8.07046 4.26472 8.33633C4.70596 8.59448 5.14931 8.84877 5.5935 9.1018C5.62624 9.12045 5.65898 9.1391 5.69271 9.15831C5.84384 9.24439 5.995 9.33041 6.14618 9.4164C6.32493 9.5181 6.50357 9.61999 6.68217 9.72196C6.65112 9.78345 6.62008 9.84494 6.5881 9.9083C5.52816 12.0477 5.2451 14.3468 5.98597 16.6391C6.13487 17.0772 6.32215 17.4889 6.54011 17.8968C6.62756 18.0634 6.62756 18.0634 6.68217 18.2269C6.62299 18.2606 6.62299 18.2606 6.56261 18.2949C5.87269 18.6873 5.1832 19.0803 4.49802 19.4809C3.82405 19.8749 3.14621 20.2621 2.4672 20.6473C2.37412 20.7004 2.28129 20.754 2.1889 20.8082C1.9425 20.9529 1.9425 20.9529 1.82243 20.9529C0.598382 18.8308 -0.00492016 16.4556 3.02163e-05 14.0153C5.99109e-05 13.9602 8.96061e-05 13.905 0.000120201 13.8481C0.00234483 12.9468 0.0523503 12.0786 0.238922 11.194C0.250624 11.1377 0.262326 11.0815 0.274382 11.0236C0.575993 9.6209 1.0959 8.2363 1.82243 6.996Z" fill="#FED400"/>
<path d="M13.999 0.0170898C15.3954 0.0170898 15.3954 0.0170898 15.8282 0.0818313C15.905 0.0925971 15.905 0.0925971 15.9832 0.10358C16.5487 0.187338 17.104 0.311681 17.6575 0.453243C17.6981 0.463486 17.7387 0.473729 17.7806 0.484282C19.6503 0.964891 21.4294 1.93451 22.9063 3.16897C22.9353 3.19318 22.9644 3.21739 22.9944 3.24233C23.2425 3.45419 23.4775 3.66023 23.5112 3.99975C23.5124 4.06079 23.5124 4.06079 23.5137 4.12306C23.5158 4.18346 23.5158 4.18346 23.518 4.24509C23.475 4.56537 23.2828 4.77972 23.0614 5.00138C23.0341 5.0289 23.0068 5.05643 22.9787 5.08479C22.8891 5.17494 22.799 5.26448 22.7087 5.354C22.646 5.41681 22.5832 5.47964 22.5204 5.54249C22.3891 5.67382 22.2576 5.80484 22.1258 5.93566C21.9571 6.10315 21.7892 6.27136 21.6214 6.43981C21.4921 6.56956 21.3623 6.69893 21.2324 6.82818C21.1704 6.89005 21.1084 6.95205 21.0466 7.01416C20.9601 7.10094 20.8731 7.18718 20.7859 7.27329C20.7119 7.34699 20.7119 7.34699 20.6364 7.42219C20.4325 7.59543 20.2478 7.66538 19.9815 7.6668C19.9422 7.66771 19.9029 7.66863 19.8623 7.66957C19.5344 7.61957 19.2846 7.40288 19.0294 7.20679C17.9472 6.39878 16.6914 5.87649 15.3607 5.64619C15.3068 5.63672 15.3068 5.63672 15.2517 5.62707C14.8341 5.56137 14.4254 5.55013 13.999 5.52352C13.999 3.7064 13.999 1.88928 13.999 0.0170898Z" fill="#D93F21"/>
<path d="M18.2035 21.2797C18.3562 21.4157 18.4455 21.566 18.5456 21.7433C18.5803 21.8044 18.615 21.8654 18.6507 21.9283C18.669 21.9608 18.6873 21.9933 18.7062 22.0268C18.7839 22.165 18.8623 22.3028 18.9406 22.4407C18.9811 22.512 19.0216 22.5833 19.062 22.6546C19.2574 22.9993 19.4554 23.3425 19.6539 23.6853C19.7208 23.8008 19.7876 23.9163 19.8544 24.0318C19.8878 24.0894 19.9211 24.147 19.9554 24.2063C20.067 24.3992 20.1783 24.5923 20.2895 24.7853C20.3461 24.8833 20.4026 24.9813 20.4591 25.0793C20.5128 25.1724 20.5664 25.2655 20.62 25.3585C20.6523 25.4146 20.6847 25.4708 20.7181 25.5286C20.7609 25.6028 20.7609 25.6028 20.8045 25.6786C20.8627 25.777 20.9248 25.8732 20.9883 25.9683C20.9883 26.0223 20.9883 26.0763 20.9883 26.1319C19.4699 26.9812 17.8486 27.5521 16.1286 27.822C16.069 27.8316 16.069 27.8316 16.0083 27.8413C15.3312 27.9467 14.6935 27.931 13.999 27.931C13.999 26.1139 13.999 24.2968 13.999 22.4246C14.4135 22.3886 14.8279 22.3526 15.2549 22.3156C16.3191 22.1317 17.2528 21.7838 18.2035 21.2797Z" fill="#0F993E"/>
</svg>
